<svg xmlns:dc="http://purl.org/dc/elements/1.1/" xmlns:cc="http://creativecommons.org/ns#" xmlns:rdf="http://www.w3.org/1999/02/22-rdf-syntax-ns#" xmlns:svg="http://www.w3.org/2000/svg" xmlns="http://www.w3.org/2000/svg" xmlns:sodipodi="http://sodipodi.sourceforge.net/DTD/sodipodi-0.dtd" xmlns:inkscape="http://www.inkscape.org/namespaces/inkscape" viewBox="0 0 8.4666665 10.583333625" version="1.1" x="0px" y="0px"><g transform="translate(0,-288.53332)"><path style="" d="m 5.3851615,291.0966 a 0.63307373,0.63307373 0 0 1 0.4679701,-0.401 v -0.0248 a 1.5768231,1.5768231 0 0 0 -0.7801501,0.31621 0.13229168,0.13229168 0 0 0 0.1612299,0.20978 1.3122398,1.3122398 0 0 1 0.1509501,-0.10023 z" fill="#000000" stroke="none"/><path style="" d="m 6.6088616,291.37957 a 0.63307373,0.63307373 0 0 1 -0.0813,0.25245 1.3122398,1.3122398 0 0 1 0.2055202,0.10575 1.0551027,1.0551027 0 0 0 1.1242299,0.002 0.13229411,0.13229411 0 0 0 -0.1406099,-0.22413 0.79051939,0.79051939 0 0 1 -0.84231,-0.001 1.5768231,1.5768231 0 0 0 -0.26553,-0.13451 z" fill="#000000" stroke="none"/><path style="" d="m 5.4536717,291.66936 a 0.63307373,0.63307373 0 0 1 -0.0986,-0.24619 1.5768231,1.5768231 0 0 0 -0.2320099,0.13571 0.13229429,0.13229429 0 0 0 0.1525701,0.21617 1.3122398,1.3122398 0 0 1 0.1780799,-0.10569 z" fill="#000000" stroke="none"/><path style="" d="m 6.7554217,290.05066 a 0.65506238,0.65506238 0 0 1 -0.4079502,-0.59163 0.13229168,0.13229168 0 0 0 -0.2645799,0 v 1.50347 a 0.36849037,0.36849037 0 1 0 0.2645799,0.35355 v -1.22647 a 0.91964574,0.91964574 0 0 0 0.30822,0.20615 0.17208166,0.17208166 0 0 1 0.0829,0.2475 0.13229369,0.13229369 0 0 0 0.22727,0.13548 0.43666503,0.43666503 0 0 0 -0.21048,-0.62805 z" fill="#000000" stroke="none"/><path style="" d="m 6.6120516,291.05927 a 1.3122398,1.3122398 0 0 1 0.0769,0.041 1.0551027,1.0551027 0 0 0 1.12337,-0.044 0.13229335,0.13229335 0 0 0 -0.14962,-0.21822 0.79051939,0.79051939 0 0 1 -1.05068,-0.14159 z" fill="#000000" stroke="none"/><path style="" d="m 5.2875816,292.93413 a 0.13229191,0.13229191 0 0 1 -0.13447,-0.22786 1.5768231,1.5768231 0 0 1 1.7491999,0.0978 0.79051939,0.79051939 0 0 0 0.83942,0.0698 0.13229207,0.13229207 0 0 1 0.1219001,0.23483 1.0551027,1.0551027 0 0 1 -1.1203601,-0.0932 1.3122398,1.3122398 0 0 0 -1.4556899,-0.0814 z" fill="#000000" stroke="none"/><path style="" d="m 5.2933815,292.35447 a 0.13229168,0.13229168 0 0 1 -0.1436298,-0.2222 1.5768231,1.5768231 0 0 1 1.7517398,0.0265 0.79051939,0.79051939 0 0 0 0.84156,0.0356 0.13229168,0.13229168 0 0 1 0.13136,0.22966 1.0551027,1.0551027 0 0 1 -1.12322,-0.0475 1.3122398,1.3122398 0 0 0 -1.45781,-0.0221 z" fill="#000000" stroke="none"/><path style="" d="m 2.6433016,294.86043 a 2.9594464,2.9594464 0 0 1 -0.26458,0.0889 V 292.44 a 0.71477188,0.71477188 0 0 0 0.26458,-0.005 z" fill="#000000" stroke="none"/><path style="" d="m 3.1724715,291.97435 a 0.71477188,0.71477188 0 0 1 -0.2645899,0.34717 v 2.42067 a 2.9594464,2.9594464 0 0 0 0.2645899,-0.15178 z" fill="#000000" stroke="none"/><path style="" d="m 3.7016416,294.1551 a 2.9594464,2.9594464 0 0 1 -0.26459,0.24336 v -2.88642 a 1.0634833,1.0634833 0 0 1 0.26459,0.0742 z" fill="#000000" stroke="none"/><path style="" d="m 4.2308117,293.37632 a 1.7991759,1.7991759 0 0 1 -0.12925,0.25842 2.9594464,2.9594464 0 0 1 -0.1353402,0.20409 v -2.0907 a 1.0634833,1.0634833 0 0 1 0.2645902,0.33069 z" fill="#000000" stroke="none"/><path style="" d="m 0.96642154,291.88927 0.15695006,3.39333 a 0.79375,0.79375 0 0 0 -0.58158005,0.9233 H 2.0989816 a 0.79375,0.79375 0 0 0 -0.58158,-0.9233 l 0.15696,-3.39333 a 0.79375,0.79375 0 1 0 -0.70794006,0 z" fill="#000000" stroke="none"/><path style="" d="m 4.5889715,292.3141 a 2.0637593,2.0637593 0 0 1 -0.2610498,1.45761 3.2240297,3.2240297 0 0 1 -1.8861301,1.43474 0.45018256,0.45018256 0 1 0 0.55564,0.55353 0.13229377,0.13229377 0 0 0 -0.25499,-0.0706 0.18559922,0.18559922 0 1 1 -0.22907,-0.22821 3.488613,3.488613 0 0 0 2.04093,-1.55247 2.3283426,2.3283426 0 0 0 0.2945,-1.64448 1.5926499,1.5926499 0 0 0 -2.65966,-0.85559 0.45018852,0.45018852 0 1 0 0.75828,0.36466 0.1322957,0.1322957 0 0 0 -0.26365,-0.0223 0.18560524,0.18560524 0 1 1 -0.31262,-0.15034 1.3280666,1.3280666 0 0 1 2.2178199,0.71344 z" fill="#000000" stroke="none"/></g><text x="0" y="23.4666669" fill="#000000" font-size="5px" font-weight="bold" font-family="'Helvetica Neue', Helvetica, Arial-Unicode, Arial, Sans-serif">Created by Pham Duy Phuong Hung</text><text x="0" y="28.4666669" fill="#000000" font-size="5px" font-weight="bold" font-family="'Helvetica Neue', Helvetica, Arial-Unicode, Arial, Sans-serif">from the Noun Project</text></svg>