<svg xmlns="http://www.w3.org/2000/svg" xmlns:xlink="http://www.w3.org/1999/xlink" version="1.1" x="0px" y="0px" viewBox="0 0 100 125" enable-background="new 0 0 100 100" xml:space="preserve"><path d="M33.2,87.8c10.4,8.8,25.2,9.6,35.4,1.8c7.8-6.7,12.2-16.4,12.2-26.6V16c0-2.5-2-4.6-4.6-4.6s-4.6,2-4.6,4.6v34.5  c0,1-0.9,1.9-1.9,1.9s-1.9-0.9-1.9-1.9v-8.1c0-2.5-2-4.6-4.6-4.6c-2.5,0-4.6,2-4.6,4.6v4.9c0,1-0.9,1.9-1.9,1.9s-1.9-0.9-1.9-1.9  v-9.3c0-2.5-2-4.6-4.6-4.6s-4.6,2-4.6,4.6v9.3c0,1-0.9,1.9-1.9,1.9c-1,0-1.9-0.9-1.9-1.9V9.6C42,7,40,5,37.5,5c-2.5,0-4.6,2-4.6,4.6  v61.3c0,1-0.9,1.9-1.9,1.9c-1,0-1.9-0.9-1.9-1.9V53c-1.1,1-2.7,2.4-5,4.6c-3.1,2.9-4.9,6.9-4.9,11.2c0,4.3,1.9,8.5,5.1,11.4  L33.2,87.8C33.2,87.8,33.2,87.8,33.2,87.8z"/><text x="0" y="115" fill="#000000" font-size="5px" font-weight="bold" font-family="'Helvetica Neue', Helvetica, Arial-Unicode, Arial, Sans-serif">Created by Marek Polakovic</text><text x="0" y="120" fill="#000000" font-size="5px" font-weight="bold" font-family="'Helvetica Neue', Helvetica, Arial-Unicode, Arial, Sans-serif">from the Noun Project</text></svg>