<svg xmlns:dc="http://purl.org/dc/elements/1.1/" xmlns:cc="http://creativecommons.org/ns#" xmlns:rdf="http://www.w3.org/1999/02/22-rdf-syntax-ns#" xmlns:svg="http://www.w3.org/2000/svg" xmlns="http://www.w3.org/2000/svg" xmlns:sodipodi="http://sodipodi.sourceforge.net/DTD/sodipodi-0.dtd" xmlns:inkscape="http://www.inkscape.org/namespaces/inkscape" viewBox="0 0 8.4666665 10.583333625" version="1.1" x="0px" y="0px"><g transform="translate(0,-288.53332)"><path style="" d="m 2.224422,289.06295 a 1.7197917,1.7197917 0 1 0 0.3911864,3.39979 l 2.3011606,2.10016 a 0.78748798,0.78748798 0 0 0 1.0009716,0.0744 l 0.3446727,0.34467 a 1.1529688,1.1529688 0 0 0 1.1859684,0.27649 0.72180683,0.72180683 0 1 0 -0.9156965,-0.91572 1.1529688,1.1529688 0 0 0 -0.034634,0.1266 l 0.1385094,0.13851 a 0.62380215,0.62380215 0 0 0 0.099722,0.0811 0.88838554,0.88838554 0 0 1 0.047043,-0.26096 0.45722347,0.45722347 0 1 1 0.5803106,0.57981 0.88838554,0.88838554 0 0 1 -0.9141619,-0.21291 L 6.104801,294.45024 a 0.78748798,0.78748798 0 0 0 -0.07493,-1.00098 L 3.9297408,291.1481 A 1.7197917,1.7197917 0 0 0 2.224422,289.06295 Z m -0.1069711,0.27027 v 0.52451 H 1.5898188 v -0.37259 a 1.4552084,1.4552084 0 0 1 0.5276321,-0.15192 z m 0.2645834,0 a 1.4552084,1.4552084 0 0 1 0.5276056,0.15192 v 0.37259 H 2.3820343 Z m -1.0567988,0.32504 v 0.19947 H 1.1257662 a 1.4552084,1.4552084 0 0 1 0.1994693,-0.19947 z m 1.8489877,0 a 1.4552084,1.4552084 0 0 1 0.1989666,0.19947 H 3.1742232 Z m -2.22157388,0.46405 H 1.3252355 v 0.52764 H 0.80022286 a 1.4552084,1.4552084 0 0 1 0.15242646,-0.52764 z m 0.63716948,0 h 0.5276321 v 0.52764 H 1.5898188 Z m 0.7922155,0 h 0.5276056 v 0.52764 H 2.3820343 Z m 0.7921889,0 h 0.3725862 a 1.4552084,1.4552084 0 0 1 0.1519502,0.52764 H 3.1742232 Z m -2.37400034,0.79222 H 1.3252355 v 0.52761 H 0.95264932 a 1.4552084,1.4552084 0 0 1 -0.15242646,-0.52761 z m 0.78959594,0 h 0.5276321 v 0.52761 H 1.5898188 Z m 0.7922155,0 h 0.5276056 v 0.52761 H 2.3820343 Z m 0.7921889,0 h 0.5245364 a 1.4552084,1.4552084 0 0 1 -0.1519502,0.52761 H 3.1742232 Z m -2.048457,0.79219 h 0.1994693 v 0.19947 a 1.4552084,1.4552084 0 0 1 -0.1994693,-0.19947 z m 0.4640526,0 h 0.5276321 v 0.52451 A 1.4552084,1.4552084 0 0 1 1.5898188,292.0793 Z m 0.7922155,0 h 0.5276056 v 0.37258 a 1.4552084,1.4552084 0 0 1 -0.5276056,0.15193 z m 0.7921889,0 h 0.1989666 a 1.4552084,1.4552084 0 0 1 -0.1989666,0.19947 z" fill="#000000" stroke="none"/><path style="" d="m 7.8994108,296.24502 a 0.13229342,0.13229342 0 0 1 -0.1870901,0.18709 l -0.8668199,-0.86683 a 1.4175522,1.4175522 0 0 0 0.3850401,0.0109 z" fill="#000000" stroke="none"/></g><text x="0" y="23.4666669" fill="#000000" font-size="5px" font-weight="bold" font-family="'Helvetica Neue', Helvetica, Arial-Unicode, Arial, Sans-serif">Created by Pham Duy Phuong Hung</text><text x="0" y="28.4666669" fill="#000000" font-size="5px" font-weight="bold" font-family="'Helvetica Neue', Helvetica, Arial-Unicode, Arial, Sans-serif">from the Noun Project</text></svg>