<svg xmlns:dc="http://purl.org/dc/elements/1.1/" xmlns:cc="http://creativecommons.org/ns#" xmlns:rdf="http://www.w3.org/1999/02/22-rdf-syntax-ns#" xmlns:svg="http://www.w3.org/2000/svg" xmlns="http://www.w3.org/2000/svg" xmlns:sodipodi="http://sodipodi.sourceforge.net/DTD/sodipodi-0.dtd" xmlns:inkscape="http://www.inkscape.org/namespaces/inkscape" viewBox="0 0 8.4666665 10.583333625" version="1.1" x="0px" y="0px"><g transform="translate(0,-288.53332)"><path style="" d="m 5.9499878,292.20656 a 0.54763646,0.54763646 0 0 0 -0.5322623,0.51416 1.7197917,1.7197917 0 0 0 -0.3994679,0.15349 0.54763646,0.54763646 0 1 0 -0.7503319,0.79737 1.7197917,1.7197917 0 0 0 -0.129196,0.40823 0.54764231,0.54764231 0 0 0 0.1555485,1.08418 1.7197917,1.7197917 0 0 0 1.609725,0.94464 0.54763646,0.54763646 0 1 0 1.0221384,-0.39274 1.7197917,1.7197917 0 0 0 0.2935287,-0.3116 0.54767692,0.54767692 0 0 0 0.3302265,-1.04439 1.7197917,1.7197917 0 0 0 -0.060987,-0.42373 0.54763646,0.54763646 0 1 0 -0.6102879,-0.90901 1.7197917,1.7197917 0 0 0 -0.3694906,-0.21703 0.54763646,0.54763646 0 0 0 -0.5591435,-0.60357 z m 0.00265,0.26508 a 0.28305318,0.28305318 0 0 1 0.2940579,0.25012 1.7197917,1.7197917 0 0 0 -0.5529527,-0.0455 0.28305318,0.28305318 0 0 1 0.2588948,-0.20463 z m -0.1638036,0.46406 a 1.45521,1.45521 0 0 1 1.4975946,1.4547 1.45521,1.45521 0 0 1 -2.9104167,0 1.45521,1.45521 0 0 1 1.4128221,-1.4547 z m -1.1653044,0.047 a 0.28305318,0.28305318 0 0 1 0.162269,0.0424 1.7197917,1.7197917 0 0 0 -0.3808677,0.4041 0.28305318,0.28305318 0 0 1 0.2185987,-0.44649 z m 2.5569598,0.20982 a 0.28305318,0.28305318 0 0 1 0.2144448,0.48215 1.7197917,1.7197917 0 0 0 -0.309536,-0.46096 0.28305318,0.28305318 0 0 1 0.095091,-0.0212 z m -3.0685581,1.16427 a 1.7197917,1.7197917 0 0 0 0.078555,0.54933 0.28305318,0.28305318 0 0 1 -0.078555,-0.54933 z m 3.4215123,0.28062 a 0.28305318,0.28305318 0 0 1 -0.1674548,0.52916 1.7197917,1.7197917 0 0 0 0.1674548,-0.52916 z m -0.8340725,1.23764 a 0.28305318,0.28305318 0 0 1 -0.5183188,0.19947 1.7197917,1.7197917 0 0 0 0.5183188,-0.19947 z" fill="#000000" stroke="none"/><path style="" d="m 2.3321283,289.06204 a 1.0740628,1.0740628 0 0 0 -0.8418248,0.43098 2.3112797,2.3112797 0 0 0 -0.2547673,2.33577 l -0.67333816,2.14198 a 0.46201275,0.46201275 0 1 0 0.87487126,0.29663 l 0.7689586,-2.10942 a 2.3112797,2.3112797 0 0 0 1.2185385,-2.00866 1.0740628,1.0740628 0 0 0 -1.0924381,-1.08728 z m 0.00476,0.26458 a 0.80947954,0.80947954 0 0 1 0.8232246,0.81958 2.0466964,2.0466964 0 0 1 -0.013494,0.21034 l -1.5461721,-0.52401 a 0.80947954,0.80947954 0 0 1 0.7363884,-0.50591 z m -0.8738394,0.73845 1.6355483,0.55502 a 2.0466963,2.0466963 0 0 1 -0.1948102,0.49247 l -1.5864681,-0.53795 a 2.0466963,2.0466963 0 0 1 0.1457325,-0.50954 z m -0.1679575,0.78135 1.4608969,0.49559 a 2.0466964,2.0466964 0 0 1 -0.6676496,0.57877 l -0.6149421,-0.20825 a 2.0466964,2.0466964 0 0 1 -0.1783027,-0.86611 z m 0.1674283,1.14154 0.466143,0.15812 -0.7420769,2.0371 a 0.19742946,0.19742946 0 1 1 -0.37361817,-0.12663 z" fill="#000000" stroke="none"/><path style="" d="m 4.459506,291.66457 -0.8899699,-0.76732 a 2.575863,2.575863 0 0 0 0.0728,-0.28661 l 0.96047,0.82811 a 2.0466964,2.0466964 0 0 0 0.0915,-0.19032 0.80947956,0.80947956 0 0 0 -1.0055201,-1.07974 2.575863,2.575863 0 0 0 0,-0.0162 1.3386462,1.3386462 0 0 0 -0.0211,-0.25378 1.0740629,1.0740629 0 0 1 1.27044,1.452 2.3112797,2.3112797 0 0 1 -1.8830099,1.40477 l -1.31777,1.46059 0.24148,-0.66262 0.82359,-0.91286 -0.36181,-0.31194 a 2.575863,2.575863 0 0 0 0.22707,-0.15357 l 0.36705,0.31646 a 2.0466964,2.0466964 0 0 0 0.8364004,-0.28599 L 3.201906,291.62856 a 2.575863,2.575863 0 0 0 0.14488,-0.22443 l 0.7473101,0.64432 a 2.0466964,2.0466964 0 0 0 0.3651898,-0.38384 z" fill="#000000" stroke="none"/><path style="" d="m 6.5287639,289.48992 a 0.13229168,0.13229168 0 0 0 -0.127635,0.13177 v 1.50328 a 0.36849037,0.36849037 0 1 0 0.2645833,0.35346 v -1.2263 a 0.91964574,0.91964574 0 0 0 0.3085042,0.20619 0.17208166,0.17208166 0 0 1 0.082682,0.24755 0.13231916,0.13231916 0 0 0 0.2273829,0.13539 0.43666503,0.43666503 0 0 0 -0.2103438,-0.62789 0.65506238,0.65506238 0 0 1 -0.4082256,-0.59168 0.13229168,0.13229168 0 0 0 -0.136948,-0.13177 z m -0.2335742,1.88413 a 0.10390744,0.10390744 0 0 1 0.1059392,0.10438 0.10390744,0.10390744 0 1 1 -0.2077509,0 0.10390744,0.10390744 0 0 1 0.1018117,-0.10438 z" fill="#000000" stroke="none"/></g><text x="0" y="23.4666669" fill="#000000" font-size="5px" font-weight="bold" font-family="'Helvetica Neue', Helvetica, Arial-Unicode, Arial, Sans-serif">Created by Pham Duy Phuong Hung</text><text x="0" y="28.4666669" fill="#000000" font-size="5px" font-weight="bold" font-family="'Helvetica Neue', Helvetica, Arial-Unicode, Arial, Sans-serif">from the Noun Project</text></svg>