<svg xmlns:dc="http://purl.org/dc/elements/1.1/" xmlns:cc="http://creativecommons.org/ns#" xmlns:rdf="http://www.w3.org/1999/02/22-rdf-syntax-ns#" xmlns:svg="http://www.w3.org/2000/svg" xmlns="http://www.w3.org/2000/svg" xmlns:sodipodi="http://sodipodi.sourceforge.net/DTD/sodipodi-0.dtd" xmlns:inkscape="http://www.inkscape.org/namespaces/inkscape" style="" xml:space="preserve" version="1.1" viewBox="0 0 64 80" x="0px" y="0px" fill-rule="evenodd" clip-rule="evenodd" stroke-linejoin="round" stroke-miterlimit="2"><path style="" d="M 58,16 C 58,13.348 56.946,10.804 55.071,8.929 53.196,7.054 50.652,6 48,6 39.122,6 24.878,6 16,6 13.348,6 10.804,7.054 8.929,8.929 7.054,10.804 6,13.348 6,16 6,24.878 6,39.122 6,48 6,50.652 7.054,53.196 8.929,55.071 10.804,56.946 13.348,58 16,58 c 8.878,0 23.122,0 32,0 2.652,0 5.196,-1.054 7.071,-2.929 C 56.946,53.196 58,50.652 58,48 Z M 43.016,28.545 24.985,18.027 c -1.237,-0.722 -2.766,-0.727 -4.008,-0.014 -1.242,0.714 -2.008,2.037 -2.008,3.469 0,5.381 0,15.655 0,21.036 0,1.432 0.766,2.755 2.008,3.469 1.242,0.713 2.771,0.708 4.008,-0.014 4.626,-2.698 13.433,-7.836 18.03,-10.518 C 44.244,34.738 45,33.423 45,32 45,30.577 44.244,29.262 43.016,28.545 Z" fill="#000000"/><text x="0" y="79" fill="#000000" font-size="5px" font-weight="bold" font-family="'Helvetica Neue', Helvetica, Arial-Unicode, Arial, Sans-serif">Created by Ranah Pixel Studio</text><text x="0" y="84" fill="#000000" font-size="5px" font-weight="bold" font-family="'Helvetica Neue', Helvetica, Arial-Unicode, Arial, Sans-serif">from the Noun Project</text></svg>