<svg xmlns="http://www.w3.org/2000/svg" xmlns:xlink="http://www.w3.org/1999/xlink" xml:space="preserve" version="1.1" style="shape-rendering:geometricPrecision;text-rendering:geometricPrecision;image-rendering:optimizeQuality;" viewBox="0 0 445 421.25" x="0px" y="0px" fill-rule="evenodd" clip-rule="evenodd"><defs><style type="text/css">
   
    .fil0 {fill:black;fill-rule:nonzero}
   
  </style></defs><g><path class="fil0" d="M32 0l381 0c8,0 16,4 22,9l0 0c6,6 10,14 10,23l0 225c0,9 -4,17 -10,23l0 0c-6,6 -14,9 -22,9l-381 0c-9,0 -17,-3 -23,-9l0 0c-5,-6 -9,-14 -9,-23l0 -225c0,-9 4,-17 9,-23l0 0c6,-5 14,-9 23,-9zm188 95l-1 0c-14,-5 -27,-8 -40,-7 -13,0 -26,3 -40,9 0,0 -1,0 -1,0 0,1 0,1 0,1l-22 109c0,1 0,1 1,2 0,0 1,1 1,1l1 0 1 0c17,-5 33,-9 50,-9 17,-1 34,2 51,9l1 0 1 0 1 -1c7,-3 15,-5 23,-6 8,-2 16,-2 25,-2 8,0 17,1 26,2 9,2 18,4 27,7 1,0 1,0 2,0 1,-1 1,-1 1,-2l0 0 0 -1 -21 -109c0,0 0,-1 -1,-1 0,0 0,0 -1,0l0 -1c-7,-3 -14,-5 -21,-6 -3,-1 -6,-1 -9,-2l3 67 -19 -12 -18 12 0 -65c-6,1 -11,3 -16,5l-3 1 -2 -1zm2 -14c6,-2 13,-4 19,-5l0 -10 33 -1 1 9c4,0 8,1 12,2 8,1 16,4 24,7 2,1 5,3 6,5 2,2 3,5 4,8l21 108c1,2 1,3 1,4 -1,2 -1,3 -1,4 -2,5 -5,8 -8,10 -4,2 -9,3 -13,1 -9,-2 -17,-4 -26,-6 -8,-1 -16,-2 -23,-2 -8,0 -15,0 -22,2 -7,1 -14,3 -21,6 -1,0 -2,0 -3,1 -1,0 -2,0 -4,0l0 0c-1,0 -2,0 -3,0 -1,0 -2,-1 -3,-1 -15,-6 -30,-9 -45,-8 -16,0 -31,4 -47,8 -1,1 -3,1 -4,1 -1,0 -3,0 -5,0 -4,-1 -8,-4 -10,-7 -3,-4 -4,-8 -3,-13l22 -108c0,-3 1,-6 3,-8 2,-2 4,-3 6,-5 16,-6 31,-9 46,-10 14,0 28,3 43,8zm-90 256c-7,0 -13,-6 -13,-13 0,-7 6,-13 13,-13l180 0c8,0 13,6 13,13 0,7 -5,13 -13,13l-180 0zm281 -311l-381 0c-2,0 -3,1 -4,2l0 0c-1,1 -2,2 -2,4l0 225c0,2 1,4 2,5l0 0c1,1 2,1 4,1l381 0c1,0 3,0 4,-1l0 0c1,-1 1,-3 1,-5l0 -225c0,-2 0,-3 -1,-4l0 0c-1,-1 -3,-2 -4,-2z"/></g><text x="0" y="352" fill="#000000" font-size="5px" font-weight="bold" font-family="'Helvetica Neue', Helvetica, Arial-Unicode, Arial, Sans-serif">Created by Jenie Tomboc</text><text x="0" y="357" fill="#000000" font-size="5px" font-weight="bold" font-family="'Helvetica Neue', Helvetica, Arial-Unicode, Arial, Sans-serif">from the Noun Project</text></svg>