<svg xmlns="http://www.w3.org/2000/svg" xmlns:xlink="http://www.w3.org/1999/xlink" version="1.1" x="0px" y="0px" viewBox="0 0 100 125" style="enable-background:new 0 0 100 100;" xml:space="preserve"><path d="M48,43h4v24h-4V43z M62,40.4l8.4,11.8c0.4,0.5,1,0.8,1.6,0.8h7.9c0.7,0,1.2-0.3,1.6-0.8l8.1-11.3c0.2-0.3,0.4-0.7,0.4-1.2  V33H62V40.4z M38,33H10v6.7c0,0.4,0.1,0.8,0.4,1.2l8.1,11.3c0.4,0.5,1,0.8,1.6,0.8h7.9c0.7,0,1.2-0.3,1.6-0.8L38,40.4V33z M48,23h-6  v16h6V23z M58,23h-6v16h6V23z M38,23H12c-1.1,0-2,0.9-2,2v4h28V23z M88,23H62v6h28v-4C90,23.9,89.1,23,88,23z M61,71H39  c-1.1,0-2,0.9-2,2v2c0,1.1,0.9,2,2,2h22c1.1,0,2-0.9,2-2v-2C63,71.9,62.1,71,61,71z"/><text x="0" y="115" fill="#000000" font-size="5px" font-weight="bold" font-family="'Helvetica Neue', Helvetica, Arial-Unicode, Arial, Sans-serif">Created by IconMark</text><text x="0" y="120" fill="#000000" font-size="5px" font-weight="bold" font-family="'Helvetica Neue', Helvetica, Arial-Unicode, Arial, Sans-serif">from the Noun Project</text></svg>