<svg xmlns="http://www.w3.org/2000/svg" xmlns:xlink="http://www.w3.org/1999/xlink" version="1.1" x="0px" y="0px" viewBox="7.5 7.5 50 62.5" enable-background="new 7.5 7.5 50 50" xml:space="preserve"><path d="M51.357,8.692c-0.006-0.027-0.003-0.054-0.013-0.081c-0.001-0.004-0.005-0.006-0.006-0.01  C51.324,8.563,51.3,8.532,51.277,8.5c-0.016-0.021-0.025-0.045-0.043-0.064C51.21,8.411,51.18,8.395,51.15,8.375  c-0.023-0.016-0.045-0.037-0.071-0.048c-0.028-0.013-0.06-0.015-0.09-0.022c-0.033-0.008-0.065-0.019-0.101-0.02  c-0.005,0-0.009-0.003-0.014-0.003c-0.03,0-0.057,0.012-0.086,0.017c-0.028,0.005-0.057,0.002-0.085,0.013l-19.856,7.206  l-8.173-4.884c-0.154-0.092-0.347-0.095-0.503-0.006c-0.157,0.089-0.253,0.255-0.253,0.435V32.5c0,0.18,0.097,0.346,0.253,0.435  C22.249,32.979,22.334,33,22.419,33c0.089,0,0.178-0.023,0.256-0.071l5.137-3.07v15.514c-1.309-2.291-3.771-3.842-6.594-3.842  c-4.187,0-7.594,3.406-7.594,7.594s3.407,7.594,7.594,7.594s7.594-3.406,7.594-7.594V29.262l11.801-7.051  c0.15-0.09,0.243-0.253,0.243-0.429s-0.093-0.339-0.243-0.429l-0.522-0.313l10.284-3.732v19.878  c-1.309-2.291-3.771-3.842-6.594-3.842c-4.188,0-7.594,3.406-7.594,7.594s3.406,7.594,7.594,7.594s7.594-3.406,7.594-7.594V16.594  V8.781C51.375,8.75,51.362,8.722,51.357,8.692z M21.219,55.719c-3.636,0-6.594-2.958-6.594-6.594s2.958-6.594,6.594-6.594  s6.594,2.958,6.594,6.594S24.854,55.719,21.219,55.719z M43.781,47.531c-3.636,0-6.594-2.958-6.594-6.594s2.958-6.594,6.594-6.594  s6.594,2.958,6.594,6.594S47.417,47.531,43.781,47.531z M22.919,31.619V11.944l16.463,9.837L22.919,31.619z M31.956,16.179  l18.419-6.684v6.748l-11.393,4.134L31.956,16.179z"/><text x="7.5" y="72.5" fill="#000000" font-size="5px" font-weight="bold" font-family="'Helvetica Neue', Helvetica, Arial-Unicode, Arial, Sans-serif">Created by Med Marki</text><text x="7.5" y="77.5" fill="#000000" font-size="5px" font-weight="bold" font-family="'Helvetica Neue', Helvetica, Arial-Unicode, Arial, Sans-serif">from the Noun Project</text></svg>