<svg xmlns="http://www.w3.org/2000/svg" xmlns:xlink="http://www.w3.org/1999/xlink" version="1.1" x="0px" y="0px" viewBox="0 0 64 80" style="enable-background:new 0 0 64 64;" xml:space="preserve"><path d="M61.929,23.647c-0.014-0.037-0.034-0.068-0.052-0.102c-0.037-0.071-0.079-0.136-0.133-0.197  c-0.029-0.033-0.058-0.062-0.091-0.091c-0.024-0.021-0.04-0.047-0.066-0.066L54.419,18H58v-2h-6.343l-1.301-0.942l7.351-7.351  l-1.414-1.414l-7.577,7.577L47,12.627V6h-2v5.179L32.586,2.19c-0.022-0.016-0.047-0.023-0.07-0.037  c-0.022-0.013-0.039-0.032-0.062-0.044C32.437,2.1,32.417,2.098,32.399,2.09c-0.045-0.02-0.091-0.035-0.138-0.048  c-0.04-0.011-0.08-0.021-0.121-0.026c-0.048-0.007-0.096-0.009-0.145-0.008c-0.042,0-0.083,0.002-0.125,0.007  c-0.047,0.006-0.092,0.017-0.138,0.03c-0.043,0.012-0.085,0.026-0.127,0.044c-0.019,0.008-0.04,0.011-0.059,0.021  c-0.023,0.012-0.041,0.031-0.063,0.044c-0.022,0.014-0.047,0.021-0.068,0.036L19,11.179V6h-2v6.627l-1.716,1.243L7.707,6.293  L6.293,7.707l7.351,7.351L12.343,16H6v2h3.581l-7.167,5.19c-0.026,0.019-0.043,0.045-0.066,0.066  c-0.033,0.029-0.062,0.058-0.091,0.091c-0.053,0.061-0.096,0.126-0.133,0.197c-0.018,0.034-0.038,0.065-0.052,0.102  C2.029,23.759,2.001,23.876,2,23.998C2,23.999,2,23.999,2,24v22v15c0,0.552,0.448,1,1,1h58c0.552,0,1-0.448,1-1V46V24  c0-0.001,0-0.001,0-0.002C61.999,23.876,61.971,23.759,61.929,23.647z M14.9,25l0.091,3.632c-0.065,0.055-0.136,0.1-0.198,0.161  c-1.217,1.217-1.217,3.197,0,4.414L16.586,35l-0.293,0.293l1.414,1.414l1-1l3-3l1-1l-1.414-1.414L21,30.586l-1.793-1.793  c-0.615-0.615-1.426-0.917-2.235-0.91L16.9,25h0.975C23.508,25,29.652,20.431,32,13.692C34.348,20.431,40.492,25,46.125,25h0.854  l-0.073,2.91c-0.818-0.007-1.638,0.286-2.234,0.883l-1.793,1.793l-0.293-0.293l-1.414,1.414l1,1l3,3l1,1l1.414-1.414L47.293,35  l1.793-1.793c1.216-1.217,1.216-3.197,0-4.414c0,0,0,0,0,0c-0.061-0.061-0.133-0.105-0.198-0.16L48.979,25H52v21v5h-4v-5  c0-0.552-0.448-1-1-1h-7v-4c0-0.552-0.448-1-1-1H25c-0.552,0-1,0.448-1,1v4h-7c-0.552,0-1,0.448-1,1v5h-4v-5V25H14.9z   M16.207,31.793c-0.437-0.438-0.437-1.148,0-1.586c0.219-0.219,0.506-0.328,0.793-0.328s0.574,0.109,0.793,0.328L19.586,32  L18,33.586L16.207,31.793z M45.879,33.586L44.293,32l1.793-1.793c0.422-0.424,1.161-0.424,1.585,0c0.437,0.438,0.437,1.149,0,1.586  L45.879,33.586z M55.763,29.5L54,31.925v-4.85L55.763,29.5z M54,38.075l1.763,2.425L54,42.925V38.075z M54.237,35L57,31.2l2.763,3.8  L57,38.8L54.237,35z M58.237,29.5L60,27.075v4.85L58.237,29.5z M57,27.8L54.964,25h4.072L57,27.8z M24,51h-6v-4h6V51z M38,51H26v-9  h12V51z M40,47h6v4h-6V47z M4,27.075L5.763,29.5L4,31.925V27.075z M7,31.2L9.763,35L7,38.8L4.237,35L7,31.2z M10,31.925L8.237,29.5  L10,27.075V31.925z M10,38.075v4.85L8.237,40.5L10,38.075z M7,27.8L4.964,25h4.072L7,27.8z M4,38.075L5.763,40.5L4,42.925V38.075z   M4,49.075L5.763,51.5L4,53.925V49.075z M4.237,46L7,42.2L9.763,46L7,49.8L4.237,46z M10,49.075V52v1.925L8.237,51.5L10,49.075z   M12,53h40v7H12V53z M54,52v-2.925l1.763,2.425L54,53.925V52z M54.237,46L57,42.2l2.763,3.8L57,49.8L54.237,46z M60,49.075v4.85  L58.237,51.5L60,49.075z M58.237,40.5L60,38.075v4.85L58.237,40.5z M57.914,23H53h-6.875C40.056,23,33,16.393,33,7.875V4.959  l18,13.034V18h0.009L57.914,23z M12.991,18H13v-0.007L31,4.959v2.916C31,16.393,23.944,23,17.875,23H11H6.086L12.991,18z M4,57.325  L7,53.2l3,4.125V60H4V57.325z M54,60v-2.675l3-4.125l3,4.125V60H54z"/><rect x="17" y="2" width="2" height="2"/><rect x="3" y="2.586" transform="matrix(0.7071 -0.7071 0.7071 0.7071 -1.6569 4)" width="2" height="2.828"/><rect x="2" y="16" width="2" height="2"/><rect x="45" y="2" width="2" height="2"/><rect x="58.586" y="3" transform="matrix(0.7071 -0.7071 0.7071 0.7071 14.7452 43.598)" width="2.828" height="2"/><rect x="60" y="16" width="2" height="2"/><rect x="20" y="48" width="2" height="2"/><rect x="42" y="48" width="2" height="2"/><text x="0" y="79" fill="#000000" font-size="5px" font-weight="bold" font-family="'Helvetica Neue', Helvetica, Arial-Unicode, Arial, Sans-serif">Created by dDara</text><text x="0" y="84" fill="#000000" font-size="5px" font-weight="bold" font-family="'Helvetica Neue', Helvetica, Arial-Unicode, Arial, Sans-serif">from the Noun Project</text></svg>